<?xml version="1.0" encoding="UTF-8" standalone="no"?>
<!-- Created with Inkscape (http://www.inkscape.org/) -->

<svg
   xmlns:dc="http://purl.org/dc/elements/1.1/"
   xmlns:cc="http://creativecommons.org/ns#"
   xmlns:rdf="http://www.w3.org/1999/02/22-rdf-syntax-ns#"
   xmlns:svg="http://www.w3.org/2000/svg"
   xmlns="http://www.w3.org/2000/svg"
   xmlns:sodipodi="http://sodipodi.sourceforge.net/DTD/sodipodi-0.dtd"
   xmlns:inkscape="http://www.inkscape.org/namespaces/inkscape"
   width="744.09448819"
   height="1052.3622047"
   id="svg2"
   version="1.1"
   inkscape:version="0.47pre4 r22446"
   inkscape:export-filename="pmc.png"
   inkscape:export-xdpi="51.529999"
   inkscape:export-ydpi="51.529999"
   sodipodi:docname="New document 1">
  <defs
     id="defs4">
    <inkscape:perspective
       sodipodi:type="inkscape:persp3d"
       inkscape:vp_x="0 : 526.18109 : 1"
       inkscape:vp_y="0 : 1000 : 0"
       inkscape:vp_z="744.09448 : 526.18109 : 1"
       inkscape:persp3d-origin="372.04724 : 350.78739 : 1"
       id="perspective10" />
  </defs>
  <sodipodi:namedview
     id="base"
     pagecolor="#ffffff"
     bordercolor="#666666"
     borderopacity="1.0"
     inkscape:pageopacity="0.0"
     inkscape:pageshadow="2"
     inkscape:zoom="2.8"
     inkscape:cx="116.18499"
     inkscape:cy="952.63245"
     inkscape:document-units="px"
     inkscape:current-layer="layer1"
     showgrid="false"
     showguides="true"
     inkscape:guide-bbox="true"
     inkscape:window-width="1440"
     inkscape:window-height="851"
     inkscape:window-x="0"
     inkscape:window-y="25"
     inkscape:window-maximized="1" />
  <metadata
     id="metadata7">
    <rdf:RDF>
      <cc:Work
         rdf:about="">
        <dc:format>image/svg+xml</dc:format>
        <dc:type
           rdf:resource="http://purl.org/dc/dcmitype/StillImage" />
        <dc:title></dc:title>
      </cc:Work>
    </rdf:RDF>
  </metadata>
  <g
     inkscape:label="Layer 1"
     inkscape:groupmode="layer"
     id="layer1">
    <rect
       style="fill:#969696;fill-opacity:1;stroke:#000000;stroke-width:2;stroke-miterlimit:4;stroke-opacity:1;stroke-dasharray:none"
       id="rect3631"
       width="100.71429"
       height="82.14286"
       x="80.714287"
       y="57.362183"
       inkscape:export-filename="/home/willg/path3640.png"
       inkscape:export-xdpi="90"
       inkscape:export-ydpi="90" />
    <path
       style="fill:#c9c9c9;fill-opacity:1;stroke:#000000;stroke-width:2;stroke-miterlimit:4;stroke-opacity:1"
       d="m 92.85714,69.505035 c 24.64286,-3.571429 50.71429,-3.571429 75,0 4.28571,19.404761 3.57143,38.095235 0,57.142855 -24.28571,3.92857 -49.28571,3.21429 -75,0 -2.5,-18.33333 -3.214286,-37.738094 0,-57.142855 z"
       id="rect3633"
       sodipodi:nodetypes="ccccc"
       inkscape:export-filename="/home/willg/path3640.png"
       inkscape:export-xdpi="90"
       inkscape:export-ydpi="90" />
    <path
       style="fill:#008000;stroke:#000000;stroke-width:1.1089133px;stroke-linecap:butt;stroke-linejoin:miter;stroke-opacity:1"
       d="m 102.83959,89.70701 c -0.0839,-2.479635 0.30831,-4.948273 1.04716,-7.352778 0.96238,-1.836938 1.50275,-3.950999 3.69445,-5.166116 2.774,-2.266143 6.89717,-2.419005 10.57217,-2.783222 3.21234,-0.369775 6.32902,0.481005 9.52278,0.511853 3.54201,0.349176 7.00113,1.893919 8.90467,4.374773 1.62104,3.340347 3.84907,7.142411 2.05926,10.741519 -0.8467,1.901013 -2.00281,3.667344 -2.80532,5.574131 -1.14584,1.903202 -1.60597,4.007432 -2.55252,5.97977 -0.53422,2.5359 -1.07151,5.22727 0.0477,7.72089 0.61376,2.24594 3.21189,3.30276 5.18406,4.6769 2.67307,1.76066 6.26914,1.02368 9.30582,0.46655 4.59429,-1.23745 8.59556,-3.93584 10.96786,-7.38054 1.61142,-3.04399 1.07711,1.37873 0.25913,2.40593 -1.03369,2.49194 -1.42806,5.15916 -2.99635,7.50638 -1.3035,2.05555 -2.36556,4.63008 -5.40942,5.36412 -3.4066,1.20783 -7.2553,0.94497 -10.91887,0.74632 -4.13842,-0.39528 -7.84365,-2.17095 -11.47037,-3.72514 -2.66192,-1.56299 -5.18442,-3.52814 -6.00339,-6.20457 -1.35228,-2.73563 -2.09745,-5.6928 -1.54917,-8.63073 0.6003,-3.82769 3.39717,-7.143488 4.35203,-10.913688 0.66897,-2.745884 1.67771,-5.63476 0.81671,-8.417958 -1.52802,-1.793839 -3.08727,-3.634452 -5.7572,-4.411988 -2.47512,-1.008046 -5.58892,-0.375804 -6.95924,1.622436 -2.77059,3.041325 -3.35573,6.967984 -6.03204,10.053395 -1.72482,-1.118902 0.69788,-4.538596 -0.78674,-6.059196 -2.05476,0.164731 -1.20639,3.782427 -3.49321,3.300959 z"
       id="path3636"
       inkscape:export-filename="/home/willg/path3640.png"
       inkscape:export-xdpi="90"
       inkscape:export-ydpi="90" />
    <text
       xml:space="preserve"
       style="font-size:40px;font-style:normal;font-weight:normal;fill:#000000;fill-opacity:1;stroke:none;stroke-width:2;stroke-miterlimit:4;stroke-opacity:1;stroke-dasharray:none;font-family:Bitstream Vera Sans"
       x="51.053482"
       y="107.2322"
       id="text3623"
       inkscape:export-filename="/home/willg/path3640.png"
       inkscape:export-xdpi="90"
       inkscape:export-ydpi="90"><tspan
         sodipodi:role="line"
         id="tspan3625"
         x="51.053482"
         y="107.2322"
         style="font-weight:bold;fill:#000000;fill-opacity:1;stroke:none;stroke-width:2;stroke-miterlimit:4;stroke-opacity:1;stroke-dasharray:none;-inkscape-font-specification:Bitstream Charter Bold">python</tspan></text>
    <path
       style="fill:none;stroke:#000000;stroke-width:1px;stroke-linecap:butt;stroke-linejoin:miter;stroke-opacity:1"
       d="m 106.78571,81.826466 c -0.0595,0.05952 -0.14092,0.103279 -0.17857,0.178572 -0.008,0.01522 -0.008,0.699063 0,0.714285 0.0376,0.07529 0.14093,0.10328 0.17857,0.178572 0.0266,0.05324 -0.0266,0.125332 0,0.178571 0.0153,0.03064 0.51354,0.52832 0.53572,0.535715 0.096,0.032 0.5631,0 0.71428,0 0.0595,0 0.11905,0 0.17858,0 0.0595,0 0.12533,0.02662 0.17857,0 0.0753,-0.03765 0.11904,-0.119048 0.17857,-0.178572 0.0595,-0.05952 0.14092,-0.103279 0.17857,-0.178571 0.0266,-0.05324 -0.0188,-0.122102 0,-0.178572 0.20519,-0.615574 0.17857,-0.132279 0.17857,-0.535714 0,-0.05952 0.0266,-0.125332 0,-0.178571 -0.0376,-0.07529 -0.14092,-0.10328 -0.17857,-0.178572 -0.0266,-0.05324 0,-0.119047 0,-0.178571 -0.0595,-0.05952 -0.14093,-0.103279 -0.17857,-0.178572 -0.0354,-0.0708 0.0365,-0.499207 0,-0.535714 -0.0421,-0.04209 -0.11986,-0.0098 -0.17857,0 -0.29939,0.0499 -0.59524,0.119048 -1.60715,0.535714 z"
       id="path3640"
       inkscape:export-xdpi="90"
       inkscape:export-ydpi="90" />
  </g>
</svg>
